<svg width="21" height="21" viewBox="0 0 21 21" fill="none" xmlns="http://www.w3.org/2000/svg">
<path d="M8.44283 12.1578L19.3031 1.30145M8.75153 12.646L11.2141 17.5712C11.8093 18.7614 12.1068 19.3566 12.4816 19.5161C12.807 19.6546 13.1788 19.6295 13.4827 19.4487C13.8327 19.2402 14.0477 18.6105 14.4777 17.3512L19.1306 3.72472C19.5054 2.62745 19.6926 2.07881 19.5644 1.71587C19.4528 1.40014 19.2045 1.15177 18.8888 1.04023C18.5258 0.911999 17.9772 1.09934 16.8799 1.47401L3.25343 6.12697C1.99411 6.55698 1.36445 6.77199 1.15601 7.12204C0.975121 7.42582 0.950056 7.79769 1.08854 8.12294C1.24813 8.4978 1.84324 8.79543 3.03346 9.39046L7.95868 11.8532C8.15484 11.9512 8.2529 12.0002 8.33778 12.0657C8.41324 12.1239 8.48083 12.1914 8.5389 12.2668C8.60449 12.3518 8.65347 12.4498 8.75153 12.646Z" stroke="#666D91" stroke-linecap="round" stroke-linejoin="round"/>
</svg>
